<svg id="Layer_1" data-name="Layer 1" xmlns="http://www.w3.org/2000/svg" xmlns:xlink="http://www.w3.org/1999/xlink" width="1920" height="1080" viewBox="0 0 1920 1080"><defs><style>.cls-1{fill:#dfc3e0;}.cls-2,.cls-3,.cls-5{fill:#fff;}.cls-2{stroke:#dfc3e0;}.cls-2,.cls-5{stroke-miterlimit:10;stroke-width:100px;}.cls-4{opacity:0.32;fill:url(#Orchid);}.cls-5{stroke:#fff;opacity:0.69;}</style><linearGradient id="Orchid" x1="-3" y1="540" x2="1917" y2="540" gradientUnits="userSpaceOnUse"><stop offset="0" stop-color="#ff7bac"/><stop offset="0.22" stop-color="#ff7bac" stop-opacity="0.76"/><stop offset="0.6" stop-color="#ff7bac" stop-opacity="0.36"/><stop offset="0.87" stop-color="#ff7bac" stop-opacity="0.1"/><stop offset="1" stop-color="#ff7bac" stop-opacity="0"/></linearGradient></defs><path class="cls-1" d="M388.57,799.89q173.51,3.23,347,6.66c115.33,2.27,230.77,3.29,346,7.48,64,2.32,127.83,6.81,191.32,15.28l-159.51-21.43q85.74,11.6,170.06,31.49c53.7,12.65,108.76,25.86,159.85,47L1300,825.88c19.6,8.29,38.3,18.28,55.3,31.16l-121.43-93.82a230.22,230.22,0,0,1,40.27,40.47l-93.82-121.44c17.14,22.4,30.46,47.24,41.49,73.14l-60.48-143.33a650.38,650.38,0,0,1,22.65,64c6.7,22.2,14.39,45.13,18.13,68l-21.44-159.51a58.67,58.67,0,0,1,.27,11.85L1202.39,437a44,44,0,0,1-2.43,9l60.49-143.33a45.12,45.12,0,0,1-4.18,7.18l93.82-121.43a53.44,53.44,0,0,1-9,8.9l121.44-93.82a82.44,82.44,0,0,1-15.45,8.72l143.32-60.49c-15.93,6.56-33.19,9.59-50.17,12l159.51-21.43c-40.09,5.33-80.76,4.64-121.11,4-41.47-.61-82.92-2.12-124.34-4-82.87-3.82-165.66-9.26-248.56-12.36s-165.57-3.05-248.37,1.31c-82,4.3-163.8,11-245.89,12.07A1858.24,1858.24,0,0,1,442,26.94l159.5,21.44A1868.05,1868.05,0,0,1,326.82-10Q207.2-47.54,87.56-20.75q-119.77,5.43-223.08,71.2Q-240.4,107-303.86,205q-79.54,86.93-107.39,204l-21.43,159.5q.49,162.45,81.91,302.83l93.82,121.43q112.3,111.56,264.76,154.31c154.61,45.28,314.16,66.78,474,84.76,108,12.15,216.32,13.77,324.75,8.17,111.37-5.74,222.22-14.13,333.84-12s223.06,10.41,334.61,15.16c55.39,2.35,111,4.33,166.43,3.19,13.34-.28,26.69-.86,40-2.05,6.13-.55,12.22-1.28,18.32-2.07,55.53-7.2,111.8-13.69,167.09-22.56q5.31-.85,10.58-1.88a176.18,176.18,0,0,0,32-9c28.9-11.6,116.3-48.1,144.36-60.94,1-.47,2.07-.92,3.08-1.42a74.38,74.38,0,0,0,6.83-3.77c22.47-14,56-42.84,65.23-50,0,0,47.15-32.93,65.58-51.08,17.91-17.65,56.84-72.93,51.05-65.44,9.25-12,36.22-42.11,49.7-65.09.53-.9.91-1.87,1.38-2.8,2.6-5.1,59.29-139.4,60.87-144.31,8.86-27.56,9.91-66.61,12.76-87.8-.45,3.32,12.4-60.27,10.89-87.14-.09-1.5-.29-3-.44-4.46-2.1-22.29-17.69-139.46-21.67-161-1.19-6.45-2.88-12.76-4.57-19.1-5.49-20.67-11.2-41.29-17.72-61.67-3.28-10.21-6.75-20.36-10.52-30.4q-2.8-7.49-5.84-14.89c-21.53-52.39-43-105.15-66.28-156.82a331,331,0,0,0-30.53-54.6c-34.82-49.59-71.17-98.52-111.48-143.79a217.69,217.69,0,0,0-22.16-21.64c-2.15-1.81-4.34-3.56-6.55-5.3-40.73-32.08-83.6-65.94-125.3-96.74q-7.82-5.77-16.14-10.79a268.79,268.79,0,0,0-32.38-16.54c-51.73-22.4-103.74-45.42-156.33-65.81q-9.2-3.56-18.54-6.71c-11.61-3.94-23.34-7.5-35.1-10.95q-39.3-11.5-79.06-21.31-78-19.21-157.5-31.44C1357.36-361,1250.6-376.66,1143.67-383c-111.72-6.67-223.92-6.76-335.79-9q-168.69-3.35-337.37-6.55l-81.94-1.54q-123.92-4.67-231.16,51.68Q45.82-312.13-35.69-224.37q-87.77,81.52-124.06,193.1Q-216.1,76-211.43,199.89L-190,359.4q42.75,152.46,154.3,264.76L85.74,718q140.37,81.4,302.83,81.91Z"/><rect class="cls-2" x="25" y="71" width="1065" height="129"/><rect class="cls-2" x="914" y="738" width="81" height="17" rx="8.5"/><path class="cls-3" d="M81.88,145.8h25.6l15.28,50.45H123l15.38-50.45h25v2.71H152.72v66h10.59v2.71H129.73v-2.71h10.91V147.29h-.21l-21.24,69.88h-2.45L95.51,147.29h-.22v67.17H106.2v2.71H81.88v-2.71h10.7v-66H81.88Z"/><path class="cls-3" d="M214.62,194.92H192l-7.3,19.54h13.2v2.71H172v-2.71h9.84l26-70.31h1.65l25,70.31h9.58v2.71H210v-2.71h11.55ZM193,192.21h20.7L203.6,163.63h-.21Z"/><path class="cls-3" d="M244.8,145.8h60.83l1.86,24.27h-2.71q-2.5-12.19-6.63-16.87a13.72,13.72,0,0,0-10.83-4.69h-5.8v66h12.77v2.71H256.13v-2.71h12.78v-66H263.1a13.72,13.72,0,0,0-10.83,4.69q-4.12,4.68-6.62,16.87h-2.72Z"/><path class="cls-3" d="M326.65,214.46v-66H315.42V145.8h35.24v2.71H339.32V179h30.81v-30.5H359V145.8h35v2.71H382.8v66H394v2.71H359v-2.71h11.12V181.72H339.32v32.74h11.34v2.71H315.42v-2.71Z"/><path class="cls-3" d="M428.89,148.51v30.61h6.44a21.8,21.8,0,0,0,5.78-.67,7.77,7.77,0,0,0,4.25-3.59c1.26-2,2-5,2.16-9.16h2.77v30.23h-2.77q-.42-8.61-3.33-11.36t-8.86-2.74h-6.44v32.63h14.53q12.34,0,17.11-5.19t5.67-16h2.72l-.7,23.9H404.94v-2.71h11.34v-66H404.94V145.8h60.68l1.22,19h-2.71q-1.39-8.67-5.7-12.51t-14.37-3.83Z"/><path class="cls-3" d="M520.81,194.92H498.14l-7.3,19.54H504v2.71H478.18v-2.71H488l26-70.31h1.65l25,70.31h9.58v2.71h-34v-2.71h11.55Zm-21.66-2.71h20.7l-10.06-28.58h-.21Z"/><path class="cls-3" d="M595.27,214.46v-66H584V145.8h35.23v2.71H607.93V179h30.82v-30.5H627.63V145.8h35v2.71H651.42v66h11.23v2.71h-35v-2.71h11.12V181.72H607.93v32.74h11.34v2.71H584v-2.71Z"/><path class="cls-3" d="M713.31,194.92H690.64l-7.29,19.54h13.2v2.71H670.68v-2.71h9.85l26-70.31h1.65l25,70.31h9.58v2.71h-34v-2.71h11.55Zm-21.66-2.71h20.71L702.3,163.63h-.22Z"/><path class="cls-3" d="M812.63,148.51v70.31h-2.18l-47-70.63h-.21v66.27h12.08v2.71H749.93v-2.71h10.59v-66H749.19V145.8h27.25l33.26,50h.21V148.51H798.1V145.8h25.33v2.71Z"/><path class="cls-3" d="M876.71,145l.32,18.52h-2.5q-5.32-16.65-18.79-16.66-7.46,0-11.58,4.13T840,159.53a8.77,8.77,0,0,0,3.43,7q3.43,2.88,12.53,4.45t13.87,3.83a19.36,19.36,0,0,1,8,7.53,22.43,22.43,0,0,1,3.27,12.08,23.93,23.93,0,0,1-6.84,17.46,22.79,22.79,0,0,1-17,7q-8.25,0-16.45-6.12l-5,4.47h-1.86v-20h2.29q3.14,9.42,8.78,14.16a18.77,18.77,0,0,0,12.34,4.74,19.28,19.28,0,0,0,12.22-4.4,13.54,13.54,0,0,0,5.56-11.09,12.92,12.92,0,0,0-3.86-9.5q-3.85-3.85-12.5-5.33a63.07,63.07,0,0,1-13.28-3.4,18.17,18.17,0,0,1-7.93-6.76A18.47,18.47,0,0,1,834.4,165a21,21,0,0,1,5.74-14.45q5.76-6.36,15.6-6.36a25.59,25.59,0,0,1,15.38,5.21,19,19,0,0,0,3.41-4.36Z"/><path class="cls-3" d="M916.57,148.51v30.61H923a21.8,21.8,0,0,0,5.78-.67,7.81,7.81,0,0,0,4.25-3.59c1.26-2,2-5,2.16-9.16H938v30.23H935.2c-.29-5.74-1.39-9.53-3.33-11.36s-4.89-2.74-8.86-2.74h-6.44v32.63H931.1q12.35,0,17.11-5.19t5.67-16h2.71l-.69,23.9H892.62v-2.71H904v-66H892.62V145.8h60.67l1.23,19H951.8q-1.38-8.67-5.69-12.51t-14.37-3.83Z"/><path class="cls-3" d="M1030.63,148.51v70.31h-2.18l-47-70.63h-.21v66.27h12.08v2.71H967.93v-2.71h10.59v-66H967.19V145.8h27.25l33.26,50h.21V148.51H1016.1V145.8h25.33v2.71Z"/><rect class="cls-2" x="1061" y="859" width="768" height="129"/><path class="cls-3" d="M1148.18,878.71v30h11.55v2.71h-35.55v-2.71h11.34V842.73h-11.34V840H1161q12.45,0,18.76,5.54a17.43,17.43,0,0,1,6.3,13.62,17.82,17.82,0,0,1-6.36,13.92q-6.36,5.61-21.15,5.62Zm0-36v33.21h6.87A36.76,36.76,0,0,0,1164,875a10.58,10.58,0,0,0,6.15-4.79q2.58-3.88,2.58-12,0-7.19-2.26-10.56a9.21,9.21,0,0,0-5.35-4.15,31.94,31.94,0,0,0-7.67-.77Z"/><path class="cls-3" d="M1228.92,913q-13.83,0-23.5-11.6t-9.66-24.8q0-15.86,10.14-27.07t23.55-11.2q12.61,0,22.62,11.39a38.78,38.78,0,0,1,0,52Q1242,913,1228.92,913Zm.21-71.95a20.67,20.67,0,0,0-10.51,2.68q-4.65,2.7-6.33,9.34t-1.68,23.21a136.89,136.89,0,0,0,1,18.25,21.16,21.16,0,0,0,4.87,11.29q3.91,4.47,12.27,4.47A21.79,21.79,0,0,0,1239,907.6q5.13-2.72,6.7-10.67t1.57-24.45q0-15-1.94-20.65a14.54,14.54,0,0,0-6.23-8.23A19.21,19.21,0,0,0,1229.13,841.08Z"/><path class="cls-3" d="M1285.92,908.67V842.73h-11.23V840h39.12a49.73,49.73,0,0,1,12.59,1.33,16.84,16.84,0,0,1,8.49,5.51,14.36,14.36,0,0,1,3.56,9.61,13.4,13.4,0,0,1-5.21,11q-5.22,4.2-17.67,6.33V874a30.5,30.5,0,0,1,14.66,6.81q5.71,5.07,5.72,17.14c0,4.61.54,7.57,1.63,8.86a5.52,5.52,0,0,0,4.49,1.95,16.49,16.49,0,0,0,4.47-.75v2.61a27.41,27.41,0,0,1-8.94,1.59q-8.77,0-12.4-4.89t-3.51-9.58l.21-9a16.94,16.94,0,0,0-3-9.34q-3-4.61-13.66-4.6h-6.65v33.9h11.23v2.71h-35.13v-2.71Zm12.67-65.94v29.53h9.58a40.71,40.71,0,0,0,9.42-.82,8.28,8.28,0,0,0,5.19-4.31c1.3-2.33,1.94-6,1.94-11.1,0-4.15-.65-7.18-2-9.1a8,8,0,0,0-4.76-3.54,32.87,32.87,0,0,0-7.32-.66Z"/><path class="cls-3" d="M1354.05,840h60.83l1.87,24.27H1414q-2.51-12.18-6.63-16.87a13.74,13.74,0,0,0-10.83-4.68h-5.8v65.94h12.78v2.71h-38.17v-2.71h12.78V842.73h-5.8a13.74,13.74,0,0,0-10.83,4.68q-4.12,4.68-6.63,16.87h-2.71Z"/><path class="cls-3" d="M1436.92,908.67V842.73h-11.23V840h60.24l.91,21.56h-2.4a49.12,49.12,0,0,0-1.86-7.32q-1.86-6.32-5.45-8.92t-12.11-2.6h-15.49v30.92h2.93a33.52,33.52,0,0,0,7.4-.64,8,8,0,0,0,4.71-3.57c1.33-2,2.13-5,2.42-9.2h2.71v30.23H1467q-.43-6.81-2.16-9.88a7.19,7.19,0,0,0-4.39-3.75,34.22,34.22,0,0,0-8-.69h-2.93v32.52h12.56v2.71h-36.4v-2.71Z"/><path class="cls-3" d="M1528.67,913q-13.83,0-23.5-11.6t-9.66-24.8q0-15.86,10.14-27.07t23.55-11.2q12.61,0,22.62,11.39a38.78,38.78,0,0,1,0,52Q1541.77,913,1528.67,913Zm.21-71.95a20.67,20.67,0,0,0-10.51,2.68q-4.65,2.7-6.33,9.34t-1.68,23.21a136.89,136.89,0,0,0,1,18.25,21.16,21.16,0,0,0,4.87,11.29q3.91,4.47,12.27,4.47a21.79,21.79,0,0,0,10.25-2.72q5.13-2.72,6.7-10.67t1.57-24.45q0-15-1.94-20.65a14.54,14.54,0,0,0-6.23-8.23A19.21,19.21,0,0,0,1528.88,841.08Z"/><path class="cls-3" d="M1596.48,842.73v65.94h16a30.4,30.4,0,0,0,7.29-.69,11.49,11.49,0,0,0,5.24-3.36,18.44,18.44,0,0,0,4-6.33,87.08,87.08,0,0,0,3-10.22h2.5l-2,23.31h-60v-2.71h11.23V842.73h-11.23V840h35.77v2.72Z"/><path class="cls-3" d="M1654.54,908.67V842.73h-11.65V840H1679v2.72h-11.76v65.94H1679v2.71h-36.08v-2.71Z"/><path class="cls-3" d="M1722.78,913q-13.85,0-23.5-11.6t-9.66-24.8q0-15.86,10.14-27.07t23.55-11.2q12.62,0,22.62,11.39a38.8,38.8,0,0,1,0,52Q1735.87,913,1722.78,913Zm.21-71.95a20.62,20.62,0,0,0-10.51,2.68q-4.67,2.7-6.34,9.34t-1.67,23.21a138.89,138.89,0,0,0,1,18.25,21.23,21.23,0,0,0,4.87,11.29q3.92,4.47,12.27,4.47a21.79,21.79,0,0,0,10.25-2.72q5.13-2.72,6.7-10.67t1.57-24.45q0-15-1.94-20.65a14.5,14.5,0,0,0-6.23-8.23A19.18,19.18,0,0,0,1723,841.08Z"/><rect class="cls-4" x="-3" y="-13" width="1920" height="1106" rx="12"/><rect class="cls-5" x="-66" y="540" width="1998" height="63" rx="12"/></svg>