<svg id="Layer_1" data-name="Layer 1" xmlns="http://www.w3.org/2000/svg" width="314" height="145" viewBox="0 0 314 145"><defs><style>.cls-1{fill:#dfc3e0;}.cls-2{fill:#fff;}</style></defs><rect class="cls-1" x="8" y="9" width="300" height="127" rx="12"/><path class="cls-2" d="M44.43,51.78H32.91V87.46H28.23V51.78H16.74V47.55H44.43Z"/><path class="cls-2" d="M52.42,51.73a2.89,2.89,0,0,1-2.09-.84,2.82,2.82,0,0,1-.86-2.11,2.92,2.92,0,0,1,3-3,2.92,2.92,0,0,1,2.13.85,3,3,0,0,1,0,4.22A2.93,2.93,0,0,1,52.42,51.73Zm2.23,35.73H50.08V59h4.57Z"/><path class="cls-2" d="M68.45,87.46H63.89V45.27h4.56Z"/><path class="cls-2" d="M98,83.35h-.11v17.22H93.31V59h4.56v5H98a10.8,10.8,0,0,1,9.85-5.67,10.41,10.41,0,0,1,8.6,3.82q3.09,3.83,3.09,10.26,0,7.16-3.48,11.45a11.57,11.57,0,0,1-9.51,4.3A9.54,9.54,0,0,1,98,83.35Zm-.11-11.5v4a8.48,8.48,0,0,0,2.3,6,8.2,8.2,0,0,0,12.33-.71c1.56-2.12,2.35-5.06,2.35-8.82a11.51,11.51,0,0,0-2.2-7.46,7.28,7.28,0,0,0-6-2.7,8.09,8.09,0,0,0-6.4,2.77A10.17,10.17,0,0,0,97.87,71.85Z"/><path class="cls-2" d="M138.73,88.13a13.22,13.22,0,0,1-10.09-4q-3.78-4-3.77-10.59,0-7.18,3.92-11.22t10.61-4q6.36,0,9.95,3.92t3.57,10.88q0,6.83-3.85,10.93A13.53,13.53,0,0,1,138.73,88.13Zm.33-26a8.71,8.71,0,0,0-7,3c-1.7,2-2.56,4.75-2.56,8.25a11.65,11.65,0,0,0,2.59,8,8.8,8.8,0,0,0,6.93,2.92,8.36,8.36,0,0,0,6.81-2.86c1.58-1.92,2.38-4.63,2.38-8.16s-.8-6.31-2.38-8.24A8.32,8.32,0,0,0,139.06,62.14Z"/><path class="cls-2" d="M175.08,63.58a5.62,5.62,0,0,0-3.46-.91,5.82,5.82,0,0,0-4.88,2.75,12.73,12.73,0,0,0-2,7.52V87.46h-4.57V59h4.57v5.88h.11a9.89,9.89,0,0,1,3-4.69,6.8,6.8,0,0,1,4.48-1.69,7.45,7.45,0,0,1,2.73.39Z"/><path class="cls-2" d="M193.25,87.19a8.87,8.87,0,0,1-4.26.89q-7.49,0-7.48-8.35V62.86h-4.9V59h4.9V52l4.56-1.48V59h7.18v3.9h-7.18V78.92A6.64,6.64,0,0,0,187,83a3.89,3.89,0,0,0,3.23,1.23,4.8,4.8,0,0,0,3-.95Z"/><path class="cls-2" d="M213.43,49.28a6.08,6.08,0,0,0-3-.75c-3.2,0-4.79,2-4.79,6V59h6.68v3.9h-6.68v24.6h-4.54V62.86H196.2V59h4.87V54.34a9.6,9.6,0,0,1,2.59-7.08,8.77,8.77,0,0,1,6.46-2.6,9,9,0,0,1,3.31.5Z"/><path class="cls-2" d="M229.1,88.13a13.22,13.22,0,0,1-10.09-4q-3.76-4-3.77-10.59,0-7.18,3.92-11.22t10.61-4q6.38,0,9.95,3.92t3.57,10.88q0,6.83-3.85,10.93A13.53,13.53,0,0,1,229.1,88.13Zm.33-26a8.71,8.71,0,0,0-7,3c-1.7,2-2.56,4.75-2.56,8.25a11.65,11.65,0,0,0,2.59,8,8.8,8.8,0,0,0,6.93,2.92,8.36,8.36,0,0,0,6.81-2.86c1.58-1.92,2.38-4.63,2.38-8.16s-.8-6.31-2.38-8.24A8.32,8.32,0,0,0,229.43,62.14Z"/><path class="cls-2" d="M255.15,87.46h-4.57V45.27h4.57Z"/><path class="cls-2" d="M266.73,51.73a2.87,2.87,0,0,1-2.09-.84,2.78,2.78,0,0,1-.86-2.11,2.92,2.92,0,0,1,3-3,3,3,0,0,1,2.13.85,3,3,0,0,1,0,4.22A3,3,0,0,1,266.73,51.73ZM269,87.46h-4.56V59H269Z"/><path class="cls-2" d="M290.11,88.13a13.21,13.21,0,0,1-10.09-4q-3.78-4-3.77-10.59,0-7.18,3.92-11.22t10.6-4q6.38,0,10,3.92T304.3,73.1q0,6.83-3.85,10.93A13.53,13.53,0,0,1,290.11,88.13Zm.33-26a8.71,8.71,0,0,0-7,3c-1.7,2-2.56,4.75-2.56,8.25a11.65,11.65,0,0,0,2.59,8,8.8,8.8,0,0,0,6.93,2.92,8.36,8.36,0,0,0,6.81-2.86c1.58-1.92,2.37-4.63,2.37-8.16S298.83,67,297.25,65A8.32,8.32,0,0,0,290.44,62.14Z"/></svg>