<svg id="Layer_1" data-name="Layer 1" xmlns="http://www.w3.org/2000/svg" width="150" height="200" viewBox="0 0 150 200"><defs><style>.cls-1{fill:#efa33f;}.cls-2{fill:#fbb03b;}.cls-3{fill:#f7931e;}.cls-4{fill:#e6e6e6;}.cls-5{fill:#fff;}.cls-6{fill:#c69c6d;}</style></defs><path class="cls-1" d="M57.34,148.53c3.06-.41,5.28.57,5.09,3.35s-1.14,3.94-3.29,7.06-3.71-3.58-3.85-5.33S54.29,149,57.34,148.53Z"/><path class="cls-1" d="M72.24,146.67c2.85-.59,5,.26,5.05,3s-.77,4-2.55,7.23-3.77-3.35-4-5.08S69.39,147.26,72.24,146.67Z"/><path class="cls-2" d="M66.71,157.15C51.39,160.89,55.25,144.67,56.07,140s5.72-22.06,10.21-22,9.39,20.59,9.63,25.33S82.86,153.21,66.71,157.15Z"/><path class="cls-2" d="M118.94,70.62c-8.57,12.49-16.5,29-25.22,40.48S65.88,139.31,61.6,131.52c1.89,2.84-13.09-10.49-20.7-27.8s-5.6-23-10.09-38.22c15,2,29.25,3.67,44,4.17S104.27,71.47,118.94,70.62Z"/><ellipse class="cls-3" cx="68.24" cy="106.76" rx="4.4" ry="1.97"/><rect class="cls-4" x="49.59" y="116.09" width="38.47" height="11.06" rx="5.53"/><ellipse class="cls-4" cx="47.99" cy="116.24" rx="7.04" ry="6.32"/><ellipse class="cls-4" cx="47.11" cy="127.3" rx="7.04" ry="6.32"/><ellipse class="cls-4" cx="88.06" cy="125.72" rx="6.16" ry="5.92"/><ellipse class="cls-4" cx="88.94" cy="115.84" rx="6.16" ry="5.92"/><polygon class="cls-5" points="60.33 113.46 62.23 113.38 64.14 113.3 63.34 116.19 62.54 119.08 61.44 116.27 60.33 113.46"/><polygon class="cls-5" points="64.35 113.47 66.38 113.47 68.41 113.47 67.39 116.24 66.38 119 65.36 116.24 64.35 113.47"/><polygon class="cls-5" points="68.26 113.46 70.16 113.38 72.06 113.3 71.26 116.19 70.47 119.08 69.36 116.27 68.26 113.46"/><polygon class="cls-5" points="72.27 113.47 74.3 113.47 76.33 113.47 75.32 116.24 74.3 119 73.28 116.24 72.27 113.47"/><polygon class="cls-5" points="75.13 128.97 73.31 128.97 71.49 128.97 72.4 125.76 73.32 122.56 74.22 125.76 75.13 128.97"/><polygon class="cls-5" points="66.98 129.27 65.08 129.29 63.17 129.32 64.08 126.45 64.99 123.58 65.99 126.43 66.98 129.27"/><polygon class="cls-5" points="62.53 129.13 60.5 129.07 58.48 129.01 59.6 126.28 60.72 123.54 61.63 126.34 62.53 129.13"/><polygon class="cls-5" points="71.29 129.17 69.26 129.08 67.23 128.99 68.4 126.28 69.56 123.56 70.43 126.37 71.29 129.17"/><path d="M54.34,102.82l-5.56-3.44L43.21,96a5.88,5.88,0,0,0,1.45,8.8A7.52,7.52,0,0,0,54.34,102.82Z"/><path d="M97.94,98l-6.18,2.44-6.18,2.45a7.32,7.32,0,0,0,9.11,3.52A6,6,0,0,0,97.94,98Z"/><path class="cls-2" d="M58.91,84c-10.43,11.58-23.4,14.61-34.38,2.33S12.47,66.17,7.83,46.17s29.85,3,37.81,9.91S69.34,72.45,58.91,84Z"/><path class="cls-2" d="M100.77,92.91c-14.44-7.32-19.92-18.3-8.22-30s20.2-14,41.43-21.4,1.56,26.92-4.67,35.09S115.22,100.23,100.77,92.91Z"/><path class="cls-6" d="M104.93,84.69c-9.31-4.62-12.67-11.81-4.76-19.81s13.54-9.64,27.6-14.91.46,17.84-3.8,23.38S114.24,89.3,104.93,84.69Z"/><path class="cls-6" d="M44.82,81.72c-8.07,6.21-16.76,6.52-22.34-2.93s-5.34-14.74-5.93-28.41,18.8,5.86,23.09,11.37S52.9,75.51,44.82,81.72Z"/><path class="cls-2" d="M60.51,150.66c3-.59,5.31.26,5.32,3.05s-.86,4-2.78,7.23-3.95-3.36-4.22-5.09S57.49,151.25,60.51,150.66Z"/><path class="cls-2" d="M68.68,150.61c3-.6,5.31.24,5.34,3s-.83,4-2.73,7.24-4-3.33-4.26-5.06S65.67,151.21,68.68,150.61Z"/><path class="cls-2" d="M80.13,132s6.27,6.48-.18,13.19-14.53,2.14-14.53,2.14c5,3.85,12.33,3.54,16.4-.69S85.12,135.89,80.13,132Z"/></svg>