<svg id="Layer_1" data-name="Layer 1" xmlns="http://www.w3.org/2000/svg" width="134.42" height="173.42" viewBox="0 0 134.42 173.42"><defs><style>.cls-1{fill:#b3b3b3;}.cls-2{fill:#ccc;}.cls-3{fill:#fff;}.cls-4{fill:#f9e1ea;}.cls-5{fill:#999;}.cls-6{fill:#001300;}</style></defs><ellipse class="cls-1" cx="30.78" cy="127.66" rx="3.17" ry="25.26" transform="translate(-58.59 31.44) rotate(-29.33)"/><ellipse class="cls-1" cx="37.06" cy="157.42" rx="7.45" ry="4.7"/><ellipse class="cls-1" cx="93.98" cy="157.42" rx="7.45" ry="4.7"/><path class="cls-2" d="M72.53,164.61c-13.71,0-38.22,5-38.22-26.6,0-34,24.51-47.55,38.22-47.55s24.83,34.79,24.83,48.79S86.25,164.61,72.53,164.61Z"/><path class="cls-1" d="M122.8,64.31c3.82,28.66-28.29,52.79-56,53.79S5,92.5,11,63.64,42.57,25.88,67.4,25.76,119,35.64,122.8,64.31Z"/><ellipse cx="44.85" cy="75.15" rx="10.67" ry="10.96"/><ellipse cx="83.3" cy="75.33" rx="10.67" ry="10.96"/><ellipse class="cls-3" cx="48.75" cy="71.15" rx="3.9" ry="4"/><ellipse class="cls-3" cx="80.59" cy="71.15" rx="4.24" ry="4.35"/><ellipse class="cls-3" cx="39.09" cy="79.68" rx="2.03" ry="2.09"/><ellipse class="cls-3" cx="90.08" cy="79.5" rx="1.86" ry="1.91"/><path class="cls-4" d="M57.89,90.46H69.21L63.48,95Z"/><path class="cls-4" d="M66.87,102.88c.06-.82-1.72-2.5-3.48-2.32-1.43.15-3,1.54-3,2.32C60.54,104.37,66.76,104.36,66.87,102.88Z"/><path class="cls-1" d="M12.68,59.78c-.43-11.33-1.55-23.49-1.86-34.6S14.83,9.11,14.18,3C21.74,6.3,29.11,6.17,36,11.57s11.44,11.87,18.27,17C46.89,33.3,40.05,39,32.94,44A247.19,247.19,0,0,0,12.68,59.78Z"/><path class="cls-4" d="M15.65,52.45A208.18,208.18,0,0,1,14,25.18c-.09-10.4,1.44-10,4.1-17.48a33.56,33.56,0,0,1,15.58,7.2c4.71,3.67,7.8,9.12,12.13,13.26C40.62,32,36,36.66,30.66,40.35S20.09,47.43,15.65,52.45Z"/><ellipse class="cls-1" cx="55.69" cy="164.73" rx="7.45" ry="4.7"/><ellipse class="cls-1" cx="75.34" cy="164.03" rx="7.45" ry="4.7"/><path class="cls-1" d="M74.2,25.62c9.72-4.44,20-10,29.45-14.5S122.19,7,126.82,4.54c-.8,8.53,2.49,16.71.93,25.27s-6.07,16.42-7.77,25c-7.43-5.32-15.31-10-22.9-15S81.88,30.17,74.2,25.62Z"/><path class="cls-4" d="M82.1,25.93A241.19,241.19,0,0,1,105,14.31c8.3-3.56,9.14-5.72,18.52-4.16.74,6.18,1.34,12.43.23,18.67s-5,11.53-6.93,17.51c-5.73-3.6-11.83-6.56-17.47-10.26A138.59,138.59,0,0,0,82.1,25.93Z"/><path class="cls-5" d="M109.76,79.26c6.53-1.73,13.83-5.68,20-3.57-5.95-1.63-14.34,2.61-20.49,4.8C109.42,80.07,109.59,79.67,109.76,79.26Z"/><path class="cls-5" d="M19.22,78.71c-5.83-1.16-11.94-4-18.22-2.3,6-1.3,13.06,1.69,18.44,3.2C19.38,79.31,19.31,79,19.22,78.71Z"/><ellipse class="cls-4" cx="29.1" cy="88.2" rx="3.56" ry="1.22"/><ellipse class="cls-4" cx="99.4" cy="88.02" rx="4.4" ry="1.39"/><path class="cls-6" d="M10.54,75.09c0-2.11-.35-3.13-.21-6.16a30.52,30.52,0,0,1,1.17-7c1.51,1.48,3.28,3,4.92,4.34a41.85,41.85,0,0,0,5.32,3.26c-2.06,1.11-3.37,2.42-5.74,3.25A38.76,38.76,0,0,0,10.54,75.09Z"/><path class="cls-6" d="M92.09,115.18a71.15,71.15,0,0,1,2.79,7.7c.63,2.51.94,4.67,1.47,7.11-3-.69-6.14-1.63-9-2.35l-8.18-2.09c2.39-1.5,4.78-2.82,7.11-4.41S90.18,117.24,92.09,115.18Z"/><path class="cls-6" d="M97.19,135.05c0,2.72.38,5.33,0,8a39.11,39.11,0,0,1-2.41,7.53,61.78,61.78,0,0,0-7-6.33c-2.32-1.92-4.33-3.67-6.59-5.55,2.75-.34,5.55-.41,8.26-.92A34.08,34.08,0,0,0,97.19,135.05Z"/><path class="cls-6" d="M36.82,152.62a43.75,43.75,0,0,1-2.3-8.79,44.52,44.52,0,0,1-.27-8.31,39.64,39.64,0,0,0,8.51,3.33c2.92.83,5.37,2,8.19,2.87-2.48,1.43-5.06,2-7.33,3.9A60.82,60.82,0,0,0,36.82,152.62Z"/><polygon class="cls-6" points="24.1 118.47 25.07 116.2 26.04 113.94 27.29 115.85 28.54 117.76 26.32 118.11 24.1 118.47"/><path class="cls-6" d="M26.61,122.63c.35-.75.62-1.46,1-2.22s.82-1.56,1.19-2.34c.44.6.8,1.28,1.19,1.92s.82,1.27,1.16,2c-.76.09-1.57.21-2.32.34S27.35,122.52,26.61,122.63Z"/><path class="cls-6" d="M28.87,126.56c.4-.72.77-1.44,1.17-2.17s.81-1.48,1.21-2.21c.38.72.84,1.42,1.25,2.11s.81,1.33,1.17,2c-.82.07-1.72.06-2.52.1S29.65,126.52,28.87,126.56Z"/><path class="cls-5" d="M19,71.27c-5.73-.82-13.48-3.36-16.38-1.14,3.07-1.82,11.78.86,17.55,2.09C19.78,71.9,19.38,71.58,19,71.27Z"/><path class="cls-6" d="M122.51,61.89c.18,2.1.62,3.09.73,6.12a30.62,30.62,0,0,1-.56,7.11c-1.63-1.33-3.52-2.66-5.27-3.87a40.86,40.86,0,0,0-5.58-2.78c2-1.29,3.16-2.71,5.45-3.75A39.1,39.1,0,0,0,122.51,61.89Z"/><path class="cls-5" d="M110.42,70.56c6.53-1.73,13.83-5.68,20-3.57-5.95-1.63-14.34,2.61-20.49,4.8C110.08,71.37,110.25,71,110.42,70.56Z"/><path class="cls-6" d="M34.73,129.86c.51-2.52.71-5.2,1.4-7.65s1.63-4.7,2.46-7.07c2.15,2.14,4.25,4.7,6.4,6.73s4.08,3.76,6.22,5.7l-8.33.48A38.36,38.36,0,0,0,34.73,129.86Z"/></svg>