<svg id="Layer_1" data-name="Layer 1" xmlns="http://www.w3.org/2000/svg" width="142.19" height="200" viewBox="0 0 142.19 200"><defs><style>.cls-1{fill:#666;}.cls-2{fill:#ff7bac;}.cls-3{fill:gray;}.cls-4{fill:#fff;}.cls-5{fill:#4d4d4d;}.cls-6{fill:#f7931e;}.cls-7{fill:#fbb03b;}.cls-8{fill:#ff1d25;}.cls-9{fill:#333;}</style></defs><path class="cls-1" d="M112.68,50.22c8.42,6-28.13,23.28-30.48,18.94s-.69-11.79,2.63-20.06S116,29.77,120,38.76,104.26,44.23,112.68,50.22Z"/><path class="cls-1" d="M42.92,31.6C39.2,41.88,41.87,57.24,36.8,59.54S24.29,45.31,24.91,39.91,22.57,18,28.67,10.85,46.65,21.33,42.92,31.6Z"/><path class="cls-2" d="M107.41,75.61c2-16.8,5.13,2.71,5,9.66-.2,11-16,74.34-20.63,55.21-5.62-23.12.27-11.46,9.71-32.25C105.68,99,105.76,89.45,107.41,75.61Z"/><path class="cls-2" d="M25.09,194.55c2.86-5.18,6.46-9.5,10.17-14.21-5.53,4.77-8.71,7.11-12.68,13.07,3.76-8.21,8.92-18.45,20.06-19.19,1.11,4.48.12,2.1-1.21,4.58,1.32-3.2,2.5,1.19.49-1.52,1.13,1.75-2.91,1.92-4.69,2.48,10.47-7.12,3.4,3.13,1.53,6.89-3.43,4.32-6.58,7.09-12.16,9,6-4.44,8.24-8,11.87-14.14A141.81,141.81,0,0,1,25.09,194.55Z"/><path class="cls-2" d="M109.86,190.42c-5.28-1.11-10.13-3.32-15.35-5.51,5.94,4.1,9,6.59,15.35,8.59-8.09-.95-18.35-2.61-23.07-14.13,3.24-2.83,1.66-.9,4.19-.41-3.1-.22,0-3.09-1.43,0,1-1.84,2.64,2.37,3.76,4.05-9.68-8.44,1.3-4.76,5.06-4.16a24.91,24.91,0,0,1,11.87,9.51c-5.85-4.74-9.56-5.77-15.92-7.33A131.46,131.46,0,0,1,109.86,190.42Z"/><path class="cls-1" d="M30.17,179.17c-12.52-1.2-9-15.89-4-30.31S43.8,84.78,64,85.81s35.5,70.56,37.53,85.89S42.7,180.38,30.17,179.17Z"/><path class="cls-3" d="M93,74.43C84.3,85,56.23,105.33,44.41,111,36.13,99.67,19.94,66.61,20.78,65.59c2.84-2.44,16.74-24.67,21-30.38,7.91,1,15.68,2.65,23.87,2.57,39.38,14.75,22.6-2,27.44,36.49C93.41,74.16,93.13,74.3,93,74.43Z"/><path d="M53.28,70.19l-7.74-7.74L37.79,54.7c-4.54,5-4.75,12.56-.47,16.84S48.74,75.21,53.28,70.19Z"/><polygon class="cls-4" points="47.8 86.62 49.31 86.86 50.83 87.1 49.42 89.72 48 92.35 47.9 89.48 47.8 86.62"/><polygon class="cls-4" points="51.53 87.03 53.12 87.39 54.71 87.75 53.12 90.19 51.53 92.63 51.53 89.83 51.53 87.03"/><path class="cls-2" d="M52.19,167.05c-1.85-8.1-2.34-15.88-3.07-24.2-.81,9.92-1.59,15.17-.06,25.08-3.59-12.2-7.68-27.8,1.33-38,4.7,4,1.86,2.2,2.78,6.06-1.53-4.63,3.15-.82-.84-2.09,2.43,1-.92,4.56-2,6.69,3.12-16.67,5.56.56,7.08,6.28.64,7.64.23,13.34-3,20.2,1.51-10,.47-15.73-1.53-25.56A222.58,222.58,0,0,1,52.19,167.05Z"/><path class="cls-2" d="M75,167.11c-1.85-8.1-2.34-15.89-3.06-24.2-.81,9.92-1.6,15.17-.07,25.07-3.59-12.19-7.68-27.79,1.34-38,4.7,4,1.86,2.2,2.77,6.06-1.52-4.64,3.16-.82-.84-2.09,2.43,1-.91,4.56-2,6.69,3.11-16.67,5.55.56,7.07,6.28.64,7.64.23,13.34-3,20.2,1.51-10,.46-15.73-1.54-25.56A220.34,220.34,0,0,1,75,167.11Z"/><path class="cls-2" d="M109.82,71.53c-4-.45,1.33-5.65,3.58-6.6,3.55-1.49,9.51-9.94,12.23-11.37,3.28-1.73-2.6,9.83-6.59,11.15C117.27,65.29,113.13,71.9,109.82,71.53Z"/><ellipse class="cls-5" cx="52.06" cy="84.35" rx="2.35" ry="1.23" transform="translate(-44.04 108.62) rotate(-72.49)"/><path d="M32.07,49.74c-1-2.31,2.75-.37,3.32,1.69s10.5,9.86,15.11,18.19-13.71-14.07-15-15.86S33.07,52.05,32.07,49.74Z"/><path class="cls-6" d="M76.13,72.05c0,2.18-2.06,6.78-2,9.2s3.11-7.9,3.17-9.12-.47-12.25-1.82-11.9S76.17,69.87,76.13,72.05Z"/><path d="M89.32,45.76c3.44-1.1-1,4.16-3.93,4.67s-18.08,13.93-31,19.36,25.12-18,28.07-19.62S85.88,46.87,89.32,45.76Z"/><path class="cls-7" d="M111.6,58.71c-.6,1.65-2.45,2-4.4,1.58s-3.62-3.5-1.55-3.6,2,3.39,3.15,2.17S112.2,57.06,111.6,58.71Z"/><path class="cls-8" d="M80,61.56,69.31,66.69,58.64,71.83c2,6,8.49,8.48,14.38,5.64S82,67.51,80,61.56Z"/><path class="cls-9" d="M56.14,87c-.27,2.09-4.25,2-5.76,1.86s-5.58-3.26-4.26-4.21,4.45-.17,5.07.54S56.4,84.93,56.14,87Z"/></svg>