<svg id="Layer_1" data-name="Layer 1" xmlns="http://www.w3.org/2000/svg" width="150" height="240.01" viewBox="0 0 150 240.01"><defs><style>.cls-1{fill:#333;}.cls-2{fill:#ff7bac;}.cls-3{fill:#282828;}.cls-4{fill:#fff;}.cls-5{fill:#ff1d25;}.cls-6{fill:#4d4d4d;}.cls-7{fill:#f7931e;}.cls-8{fill:#fbb03b;}</style></defs><path class="cls-1" d="M114.18,29.16c11.71.21-11.9,37.68-16.85,35.26S89.25,54.37,87.18,45s17.28-36,26.68-30.45S102.47,28.94,114.18,29.16Z"/><path class="cls-1" d="M36.62,54.86c3,11.37,15.13,23.39,11.8,28.49s-20.77-5-23.58-10.22-16-18-14.74-28.06S33.66,43.49,36.62,54.86Z"/><path class="cls-2" d="M123.15,89.68c2.28-18,5.85,2.89,5.71,10.34-.23,11.75-18.18,79.55-23.49,59.07-6.4-24.73.31-12.26,11.06-34.51C121.18,114.75,121.27,104.48,123.15,89.68Z"/><path class="cls-2" d="M29.43,217c3.25-5.54,7.35-10.16,11.58-15.21-6.31,5.11-9.92,7.61-14.45,14C30.85,207,36.72,196,49.4,195.21c1.27,4.79.15,2.24-1.37,4.9,1.5-3.42,2.85,1.27.56-1.63,1.28,1.87-3.31,2.05-5.35,2.65,11.93-7.62,3.88,3.35,1.74,7.38-3.9,4.62-7.49,7.59-13.84,9.67,6.87-4.75,9.39-8.53,13.52-15.13A157.9,157.9,0,0,1,29.43,217Z"/><path class="cls-2" d="M126,212.54c-6-1.18-11.54-3.55-17.49-5.89,6.76,4.38,10.28,7,17.49,9.19-9.21-1-20.9-2.8-26.27-15.12,3.69-3,1.89-1,4.76-.44-3.53-.23,0-3.3-1.62,0,1.15-2,3,2.54,4.28,4.34-11-9,1.47-5.09,5.76-4.46a28.08,28.08,0,0,1,13.52,10.18c-6.67-5.07-10.89-6.17-18.14-7.84A151.79,151.79,0,0,1,126,212.54Z"/><path class="cls-1" d="M35.21,200.51c-14.26-1.29-10.3-17-4.57-32.44S50.72,99.49,73.73,100.6s40.43,75.51,42.74,91.91S49.47,201.8,35.21,200.51Z"/><path class="cls-3" d="M110.81,62.57c-1.54,14.6-15.23,49.65-22.82,61.84-14.95-5-51-24.57-50.88-26,1.14-3.88.27-32,.67-39.65,8.09-3.92,16.47-7.14,24.16-12.17C108.4,35.85,82,31.13,110.81,62.37,111.06,62.07,110.88,62.36,110.81,62.57Z"/><path d="M70.68,82.83,58.5,80.65,46.31,78.47c-1.13,7.2,3.41,14,10.15,15.22S69.56,90,70.68,82.83Z"/><polygon class="cls-4" points="75.84 100.73 77.43 100.02 79.01 99.32 79.32 102.5 79.64 105.69 77.74 103.21 75.84 100.73"/><polygon class="cls-4" points="79.25 99.43 80.97 98.76 82.68 98.09 82.77 101.22 82.86 104.34 81.05 101.89 79.25 99.43"/><path class="cls-2" d="M60.28,187.54c-2.11-8.67-2.67-17-3.49-25.9-.92,10.61-1.82,16.23-.07,26.83-4.09-13.05-8.75-29.75,1.51-40.69,5.35,4.26,2.12,2.35,3.17,6.48-1.74-5,3.59-.87-1-2.24,2.77,1-1,4.89-2.27,7.16,3.54-17.84,6.32.6,8,6.73.73,8.17.26,14.28-3.37,21.61,1.71-10.67.53-16.83-1.75-27.35A223.28,223.28,0,0,1,60.28,187.54Z"/><path class="cls-2" d="M86.25,187.6c-2.11-8.67-2.66-17-3.49-25.9-.92,10.61-1.82,16.24-.07,26.83-4.09-13.05-8.75-29.75,1.52-40.69,5.35,4.26,2.12,2.35,3.16,6.48-1.74-4.95,3.59-.87-1-2.24,2.77,1-1,4.89-2.27,7.16,3.55-17.83,6.33.61,8.06,6.73.73,8.17.25,14.28-3.38,21.61,1.72-10.67.53-16.83-1.75-27.35A223.22,223.22,0,0,1,86.25,187.6Z"/><path class="cls-2" d="M125.9,85.31c-4.57-.48,1.51-6,4.07-7.06,4-1.6,10.83-10.64,13.92-12.17,3.75-1.85-2.95,10.52-7.5,11.93C134.38,78.63,129.66,85.7,125.9,85.31Z"/><ellipse class="cls-5" cx="79.97" cy="80.78" rx="1.78" ry="1.91"/><path class="cls-1" d="M84.25,95.11c1.27,1.91-2.29,4.58-3.73,5.5s-7.24,1.14-6.76-.56,3.79-3.19,4.85-3S83,93.2,84.25,95.11Z"/><ellipse class="cls-6" cx="78.43" cy="96.13" rx="1.4" ry="2.53" transform="translate(-25.42 28.25) rotate(-17.62)"/><path d="M37.78,77.53c-2.4-1.44,2.36-2,4.2-.52S58.1,79.4,67.69,84,45.9,79.82,43.54,79,40.18,79,37.78,77.53Z"/><path class="cls-7" d="M93.42,70.65c1.34,1.95,2.32,7.27,3.94,9.36s-2-8.9-2.75-10-8.15-10.59-9.2-9.45S92.08,68.7,93.42,70.65Z"/><path d="M89.33,39.35c2.55-3.07,1.64,4.31-.78,6.51s-8.3,23.31-17.12,36S83.82,50.67,85.58,47.44,86.77,42.41,89.33,39.35Z"/><path class="cls-8" d="M118.51,37.35c.47,1.83-1.09,3.22-3.16,4.06s-5.62-.91-3.73-2.25,4.06,1.76,4.34,0S118,35.52,118.51,37.35Z"/><path class="cls-5" d="M90.44,59,83.61,70,76.76,81A11.88,11.88,0,0,0,93.9,77.35,13.81,13.81,0,0,0,90.44,59Z"/></svg>